<?xml version="1.0" encoding="UTF-8"?>
<svg id="Layer_1" xmlns="http://www.w3.org/2000/svg" version="1.1" viewBox="0 0 176.77 72.22">
  <!-- Generator: Adobe Illustrator 30.5.1, SVG Export Plug-In . SVG Version: 2.1.4 Build 3)  -->
  <defs>
    <style>
      .st0 {
        fill: #d0cfcd;
      }

      .st1 {
        fill: #a6a6a7;
      }

      .st2 {
        fill: #fff;
      }

      .st3 {
        fill: #bdac96;
      }

      .st4 {
        fill: #6f6a64;
      }
    </style>
  </defs>
  <g>
    <path class="st2" d="M38.34,1.21c2,.14,3.97,1.09,5.63,2.19,2.82,1.87,5.58,5.01,6.99,8.09,3.2,7.02-4.19,11.75-9.9,13.86,4.18,1.67,8.18,5.61,8.75,10.22.46,3.74-1.58,7.25-4.79,9.11,4.11,1.89,8.06,4.73,10.42,8.69.85,1.42,1.52,2.98,1.55,4.63v1.73c0,1.25-.47,2.32-1.25,3.31-1.83,2.34-5.47,3.82-8.32,4.42-5.26,1.12-10.64,2.11-15.81,2.34-.2.01-.39.03-.6.05h-9.53c-3.24-.13-6.72-1.01-9.55-2.63-2.85-1.64-4.37-3.73-5.67-6.71-1.4-3.21-1.83-6.19-.86-9.57.66-2.3,1.89-4.53,3.88-5.91v-.1c-3.68-1.13-7.44-3.83-7.59-7.98v-1.01c.13-3.1,2.05-5.43,4.52-7.17,3.05-2.15,6.76-3.68,10.31-4.83-2.68-1.32-4.86-3.27-5.65-6.22s.04-5.28,1.95-7.4c2.76-3.07,7.92-5.25,11.74-6.68,2.84-1.06,5.83-2.11,8.82-2.43h4.95Z"/>
    <path class="st1" d="M31.75,70.18v.05h-.6s.05-.06.11-.06h.48Z"/>
    <path class="st4" d="M50.51,51.06c-2.39-2.11-5.34-3.84-8.37-4.78-3.29,1.08-6.82,1.23-10.26,1.11l-5.07-.28-8.43-.56c-1.71-.11-3.34-.27-5.03-.5-2.16.51-3.74,1.64-4.79,3.62-.89,1.68-1.36,3.56-1.34,5.48.02,2.53,1.19,5.1,2.45,7.25.44.75.96,1.4,1.62,1.96,4.21,3.6,11.27,4.14,16.66,3.96,6.18-.21,12.12-1.16,18.15-2.4,2.62-.54,5.54-1.47,7.51-3.27,3.63-3.33-.03-8.94-3.1-11.6ZM22.49,64.02c-1.35-.04-2.58-.38-3.79-.88-1.64-.67-3.07-1.64-4.37-2.83-2.02-1.85-3.51-4.15-3.62-6.94-.02-.59.29-1.04.86-1.16.47-.1,1.13.21,1.16.8.06,1.13.32,2.17.88,3.18.7,1.25,1.66,2.27,2.77,3.18,1.69,1.38,3.69,2.36,5.88,2.56.62.06,1.11.29,1.19.96.06.5-.33,1.14-.98,1.12ZM30.44,64.44c-1.24.09-2.45.07-3.69.01-.58-.03-.99-.53-.96-1.05.03-.57.48-1,1.08-1h3.43c.56.01.96.47,1,.94.05.5-.31,1.05-.86,1.09Z"/>
    <path class="st0" d="M48.66,11.91c-1.74-3.03-4.45-5.81-7.63-7.32-1.89-.89-3.91-1.24-6-1.05-1.39.13-2.69.38-4.04.75-3.56.99-7,2.25-10.34,3.82-1.15.54-2.21,1.12-3.27,1.8-2.54,1.62-5.02,3.98-4.33,7.21.3,1.43,1.01,2.65,2.13,3.6,3.35,2.85,8.7,3.97,13.05,4.16,2.16.1,4.22.1,6.41-.05,1.75-.12,3.36-.42,5-.94,1.84-.58,3.57-1.34,5.22-2.35,1.59-.97,3.23-2.28,4.15-3.9,1.09-1.92.72-3.88-.35-5.75ZM46.77,15.95c-.74,1.35-1.82,2.38-3.1,3.22-1.84,1.21-3.92,1.82-6.16,1.97-.7.05-1.23-.31-1.27-.99-.03-.64.45-1.06,1.12-1.08,2.22-.07,4.4-.88,6.1-2.29.66-.55,1.11-1.18,1.53-1.89.28-.48.93-.57,1.38-.31.45.26.67.87.39,1.38Z"/>
    <path class="st3" d="M44.99,30.84c-2.25-2.27-4.99-3.47-8.12-4.18-1.87.28-3.69.38-5.59.37-1.56,0-3.04-.03-4.59-.16-2.16-.19-4.24-.56-6.33-1.21-4.12.75-8.14,2.53-11.75,4.62-2.12,1.32-3.99,2.9-4.53,5.43-.57,2.69.94,4.96,3.23,6.29.66.38,1.3.7,2.02.96,1.44.52,2.88.87,4.4,1.08,1.44.2,2.8.34,4.26.44l9.49.64,4.8.25c1.61.08,3.15.03,4.78-.13,3.16-.3,6.79-1.31,8.95-3.63.82-.89,1.34-1.92,1.64-3.08.73-2.8-.77-5.64-2.67-7.69ZM21.97,30.34c-2.52-.02-4.96.55-7.19,1.7-1.13.58-2.11,1.34-2.97,2.3-.49.54-.8,1.1-1.14,1.69-.27.46-.85.58-1.3.37-.4-.18-.75-.71-.54-1.2.95-2.18,3.13-4.04,5.25-5.11,2.48-1.24,5.18-1.81,7.95-1.82.65,0,1.13.44,1.12,1.05-.01.66-.52,1.02-1.18,1.01Z"/>
  </g>
  <g>
    <path class="st2" d="M68.67,30.62c-.33,0-.58-.12-.75-.36-.18-.24-.29-.59-.34-1.07-.1-1.23-.17-2.75-.21-4.57-.04-1.82-.06-3.94-.06-6.37,0-1.88.02-3.56.06-5.05.04-1.49.08-2.76.13-3.81.08-1.38.26-2.29.54-2.74.29-.45.81-.68,1.56-.68.4,0,.76.1,1.09.3.33.2.68.64,1.07,1.33s.87,1.72,1.45,3.1c.58,1.38,1.3,3.26,2.18,5.64.93,2.46,1.63,4.38,2.1,5.79.48,1.4.82,2.44,1.03,3.1.21.66.36,1.09.45,1.28.09.19.18.28.28.28.12,0,.23-.09.32-.28.09-.19.23-.61.43-1.28.2-.66.54-1.7,1.03-3.1.49-1.4,1.18-3.33,2.09-5.79.9-2.38,1.63-4.26,2.2-5.64.56-1.38,1.05-2.41,1.45-3.1s.77-1.13,1.11-1.33c.34-.2.72-.3,1.15-.3.73,0,1.23.23,1.5.68.28.45.45,1.37.53,2.74.05,1.05.09,2.32.13,3.81.04,1.49.06,3.18.06,5.05,0,2.43-.01,4.55-.04,6.37-.03,1.82-.1,3.34-.23,4.57-.03.48-.13.83-.32,1.07-.19.24-.43.36-.73.36-.25,0-.46-.12-.64-.36-.17-.24-.31-.75-.41-1.52-.1-.78-.15-1.97-.15-3.57,0-3.13.02-5.98.06-8.55.04-2.57.06-4.87.06-6.9,0-.33-.01-.56-.04-.71-.03-.15-.09-.23-.19-.23s-.2.07-.3.21c-.1.14-.27.5-.51,1.09-.24.59-.58,1.52-1.03,2.8-.45,1.28-1.06,3.07-1.84,5.37-.85,2.56-1.55,4.58-2.1,6.09-.55,1.5-1.01,2.61-1.39,3.33s-.73,1.18-1.07,1.39c-.34.21-.71.32-1.11.32s-.77-.11-1.11-.32-.7-.68-1.07-1.39c-.38-.71-.84-1.82-1.41-3.33-.56-1.5-1.27-3.53-2.12-6.09-.75-2.3-1.35-4.1-1.8-5.37-.45-1.28-.78-2.21-1-2.8-.21-.59-.37-.95-.47-1.09-.1-.14-.19-.21-.26-.21-.13,0-.22.08-.28.23s-.09.39-.09.71c0,2.03.04,4.33.11,6.9.08,2.57.11,5.42.11,8.55,0,1.6-.05,2.79-.15,3.57-.1.78-.24,1.28-.41,1.52-.18.24-.39.36-.64.36Z"/>
    <path class="st2" d="M102.79,30.77c-1.55,0-2.93-.39-4.13-1.17-1.2-.78-2.14-1.91-2.82-3.4-.68-1.49-1.01-3.27-1.01-5.35s.34-3.76,1.01-5.21c.68-1.44,1.62-2.54,2.82-3.29,1.2-.75,2.58-1.13,4.13-1.13,1.25,0,2.35.21,3.31.62s1.75,1.06,2.41,1.94c.05.08.11.13.19.17.08.04.15.06.23.06.25,0,.38-.33.38-.98s.1-1.09.3-1.32c.2-.23.48-.34.83-.34.38,0,.66.13.87.38.2.25.31.6.34,1.05.08,1.1.12,2.38.13,3.83.01,1.45.02,2.86.02,4.21,0,1.25,0,2.66-.02,4.21-.01,1.55-.06,2.93-.13,4.13-.03.45-.14.8-.34,1.05-.2.25-.49.38-.87.38-.35,0-.63-.19-.83-.58-.2-.39-.3-.86-.3-1.41,0-.68-.13-1.01-.38-1.01-.15,0-.29.08-.41.23-.7.95-1.52,1.68-2.44,2.18-.93.5-2.02.75-3.27.75ZM103.35,28.44c.53,0,1.15-.13,1.86-.39s1.4-.69,2.07-1.28,1.21-1.37,1.65-2.35c.44-.98.66-2.17.66-3.57,0-1.33-.22-2.46-.66-3.38-.44-.93-.99-1.68-1.65-2.25s-1.35-1-2.07-1.26-1.33-.39-1.86-.39c-1.9,0-3.38.66-4.42,1.97-1.04,1.32-1.56,3.1-1.56,5.35s.52,4.11,1.56,5.49c1.04,1.38,2.51,2.07,4.42,2.07Z"/>
    <path class="st2" d="M117.9,30.62c-.35,0-.61-.11-.77-.32-.16-.21-.27-.51-.32-.88-.05-.83-.09-1.79-.11-2.88-.03-1.09-.03-2.42-.02-4,.01-1.58,0-3.52-.02-5.83,0-1.6,0-2.98.02-4.13.01-1.15.03-2.18.06-3.08.03-.9.05-1.79.08-2.67.05-.4.17-.71.36-.92s.43-.32.73-.32.55.11.75.32c.2.21.31.52.34.92.02.63.05,1.37.08,2.24.02.86.05,1.75.08,2.67.02.91.04,1.77.06,2.55s.02,1.43.02,1.94c0,.28.06.48.17.62.11.14.33.21.66.21.35,0,.78-.2,1.28-.6s1.26-1.11,2.29-2.14c.38-.38.78-.78,1.22-1.2.44-.43.88-.79,1.32-1.11.44-.31.83-.47,1.18-.47.3,0,.53.08.7.24.16.16.24.38.24.66,0,.23-.12.5-.36.81s-.59.69-1.05,1.13c-.46.44-1.03.97-1.71,1.6-.95.9-1.75,1.57-2.39,2.01-.64.44-.96.81-.96,1.11,0,.18.09.41.28.71.19.3.51.75.96,1.35s1.09,1.45,1.92,2.56c.63.83,1.22,1.62,1.78,2.39.56.76,1.03,1.45,1.41,2.07.38.61.56,1.13.56,1.56,0,.25-.07.46-.21.64-.14.17-.38.26-.73.26-.5,0-.87-.16-1.11-.49s-.48-.65-.73-.98c-1.63-2.25-2.85-4.05-3.66-5.39-.81-1.34-1.42-2.29-1.82-2.84-.1-.17-.23-.31-.38-.41-.15-.1-.33-.15-.53-.15s-.34.12-.43.36c-.09.24-.14.53-.17.88v2.16c0,.96,0,1.96.02,2.99.01,1.03.02,1.9.02,2.63,0,.4-.09.71-.28.92-.19.21-.46.32-.81.32Z"/>
    <path class="st2" d="M140.18,30.77c-1.83,0-3.38-.31-4.64-.92-1.27-.61-2.28-1.42-3.04-2.41-.76-.99-1.32-2.05-1.65-3.19-.34-1.14-.51-2.22-.51-3.25s.14-2.07.43-3.19c.29-1.13.76-2.19,1.43-3.19.66-1,1.56-1.82,2.69-2.44,1.13-.63,2.54-.94,4.25-.94s3.01.35,4.08,1.05c1.06.7,1.85,1.65,2.37,2.84.51,1.19.77,2.54.77,4.04,0,.7-.24,1.25-.71,1.65-.48.4-1.13.6-1.95.6-1.95,0-3.85-.01-5.67-.04s-3.31-.04-4.43-.04c-.3,0-.5.05-.6.15s-.15.25-.15.45c0,.65.13,1.34.39,2.07.26.73.68,1.42,1.26,2.07s1.34,1.18,2.29,1.6c.95.41,2.12.62,3.49.62.9,0,1.61-.01,2.12-.04.51-.03.93-.05,1.26-.08.33-.03.65-.04.98-.04.35,0,.63.09.83.26.2.17.3.41.3.71,0,.48-.43.87-1.28,1.18-.85.31-2.28.47-4.28.47ZM138.9,19.27c1.43,0,2.49-.03,3.19-.09.7-.06,1.17-.18,1.41-.36.24-.17.36-.44.36-.79,0-1.28-.42-2.34-1.26-3.19-.84-.85-2-1.28-3.48-1.28-1.25,0-2.33.23-3.23.7-.9.46-1.59,1.06-2.07,1.79-.48.73-.71,1.5-.71,2.33,0,.28.11.48.32.6.21.13.73.21,1.54.24.81.04,2.12.06,3.93.06Z"/>
    <path class="st2" d="M156.86,8.56c-.65,0-1.15-.2-1.5-.6-.35-.4-.53-.91-.53-1.54s.17-1.14.53-1.54c.35-.4.85-.6,1.5-.6.7,0,1.23.2,1.58.6.35.4.53.92.53,1.54s-.18,1.14-.53,1.54c-.35.4-.88.6-1.58.6ZM156.9,30.62c-.2,0-.38-.05-.53-.15s-.28-.24-.38-.41c-.13-.23-.21-.77-.26-1.63-.05-.86-.08-1.93-.08-3.19v-8.08c0-1.37.02-2.54.08-3.53.05-.99.12-1.58.22-1.79.13-.23.26-.38.41-.47s.33-.13.53-.13c.45,0,.76.19.94.56.13.2.21.79.25,1.77.04.98.06,2.15.06,3.53v8.14c0,1.27-.03,2.34-.08,3.21s-.14,1.42-.26,1.62c-.23.38-.53.56-.9.56Z"/>
    <path class="st2" d="M169.83,30.77c-1.58,0-2.79-.34-3.65-1.03-.85-.69-1.44-1.62-1.77-2.8-.33-1.18-.49-2.49-.49-3.95,0-1.68.01-3.21.04-4.58.02-1.38.04-2.63.04-3.76,0-.25-.04-.41-.13-.47-.09-.06-.22-.09-.39-.09-.53,0-.95-.03-1.26-.08-.31-.05-.54-.17-.68-.36s-.21-.47-.21-.85c0-.48.14-.79.43-.96.29-.16.73-.24,1.33-.24.33,0,.56-.02.7-.08.14-.05.22-.2.24-.45.02-.35.04-.7.06-1.03.01-.34.03-.67.06-1,.05-.5.17-.89.38-1.17.2-.28.45-.41.75-.41.5,0,.82.27.96.81.14.54.21,1.51.21,2.91,0,.17.03.29.09.34.06.05.18.08.36.08h4.58c.58,0,1.03.09,1.35.26.33.18.49.49.49.94,0,.48-.17.81-.53,1-.35.19-.79.28-1.32.28h-4.7c-.13,0-.23.03-.3.09s-.11.19-.11.39c-.03,1.83-.03,3.52-.02,5.07s.02,2.71.02,3.46c0,2,.33,3.38.98,4.11.65.74,1.5,1.11,2.56,1.11.63,0,1.1-.06,1.43-.17.33-.11.69-.17,1.09-.17.33,0,.58.09.75.26.18.17.26.44.26.79s-.13.66-.39.92-.66.46-1.2.6-1.21.21-2.01.21Z"/>
    <path class="st2" d="M67.47,65.77c-.53,0-.9-.12-1.13-.36-.23-.24-.34-.52-.34-.85,0-.25.06-.46.19-.62.12-.16.29-.29.49-.38s.41-.14.64-.17c2.05-.2,3.61-.56,4.66-1.07s1.58-1.35,1.58-2.5c0-.73-.26-1.31-.77-1.75s-1.14-.83-1.88-1.17c-.74-.34-1.48-.72-2.24-1.15-.75-.43-1.38-.97-1.9-1.63-.51-.66-.77-1.55-.77-2.65,0-1.3.37-2.34,1.11-3.1.74-.76,1.7-1.32,2.88-1.65,1.18-.34,2.43-.51,3.76-.51.55,0,.94.09,1.16.28.23.19.34.48.34.88,0,.2-.04.38-.13.54s-.23.3-.41.41c-.19.11-.46.18-.81.21-1.93.1-3.32.38-4.17.83-.85.45-1.28,1.08-1.28,1.88s.26,1.4.77,1.86c.51.46,1.15.88,1.9,1.24s1.5.75,2.24,1.17c.74.41,1.36.93,1.88,1.56.51.63.77,1.45.77,2.48,0,1.1-.28,2.05-.83,2.84-.55.79-1.27,1.43-2.14,1.92-.88.49-1.81.85-2.8,1.09-.99.24-1.91.36-2.76.36Z"/>
    <path class="st2" d="M86.03,65.77c-1.58,0-2.79-.34-3.65-1.03-.85-.69-1.44-1.62-1.77-2.8s-.49-2.49-.49-3.95c0-1.68.01-3.21.04-4.58.02-1.38.04-2.63.04-3.76,0-.25-.04-.41-.13-.47s-.22-.09-.39-.09c-.53,0-.95-.03-1.26-.08-.31-.05-.54-.17-.68-.36-.14-.19-.21-.47-.21-.85,0-.48.14-.79.43-.96s.73-.24,1.33-.24c.33,0,.56-.02.69-.08.14-.05.22-.2.25-.45.02-.35.04-.7.06-1.03s.03-.67.06-1c.05-.5.17-.89.38-1.17.2-.28.45-.41.75-.41.5,0,.82.27.96.81.14.54.21,1.51.21,2.91,0,.17.03.29.09.34.06.05.18.08.36.08h4.58c.58,0,1.03.09,1.35.26.33.18.49.49.49.94,0,.48-.18.81-.53,1s-.79.28-1.31.28h-4.7c-.13,0-.23.03-.3.09s-.11.19-.11.39c-.03,1.83-.03,3.52-.02,5.07s.02,2.71.02,3.46c0,2,.33,3.38.98,4.11.65.74,1.5,1.11,2.55,1.11.63,0,1.1-.06,1.43-.17.33-.11.69-.17,1.09-.17.33,0,.58.09.75.26s.26.44.26.79-.13.66-.39.92-.66.46-1.2.6-1.21.21-2.01.21Z"/>
    <path class="st2" d="M98.54,65.77c-1.55,0-2.93-.39-4.13-1.17-1.2-.78-2.14-1.91-2.82-3.4-.68-1.49-1.01-3.27-1.01-5.35s.34-3.76,1.01-5.21c.68-1.44,1.62-2.54,2.82-3.29,1.2-.75,2.58-1.13,4.13-1.13,1.25,0,2.36.21,3.31.62.95.41,1.75,1.06,2.4,1.94.05.08.11.13.19.17.08.04.15.06.23.06.25,0,.38-.33.38-.98s.1-1.09.3-1.32.48-.34.83-.34c.38,0,.66.13.86.38.2.25.31.6.34,1.05.08,1.1.12,2.38.13,3.83.01,1.45.02,2.86.02,4.21,0,1.25,0,2.66-.02,4.21s-.06,2.93-.13,4.13c-.03.45-.14.8-.34,1.05-.2.25-.49.38-.86.38-.35,0-.63-.19-.83-.58-.2-.39-.3-.86-.3-1.41,0-.68-.13-1.01-.38-1.01-.15,0-.29.08-.41.23-.7.95-1.52,1.68-2.44,2.18s-2.02.75-3.27.75ZM99.11,63.44c.53,0,1.15-.13,1.86-.39.71-.26,1.4-.69,2.07-1.28.66-.59,1.21-1.37,1.65-2.35.44-.98.66-2.17.66-3.57,0-1.33-.22-2.46-.66-3.38s-.99-1.68-1.65-2.25c-.66-.58-1.35-1-2.07-1.26-.71-.26-1.33-.39-1.86-.39-1.9,0-3.38.66-4.42,1.97-1.04,1.32-1.56,3.1-1.56,5.35s.52,4.11,1.56,5.49c1.04,1.38,2.51,2.07,4.42,2.07Z"/>
    <path class="st2" d="M119.02,65.77c-1.58,0-2.79-.34-3.65-1.03-.85-.69-1.44-1.62-1.77-2.8-.33-1.18-.49-2.49-.49-3.95,0-1.68.01-3.21.04-4.58.02-1.38.04-2.63.04-3.76,0-.25-.04-.41-.13-.47-.09-.06-.22-.09-.39-.09-.53,0-.95-.03-1.26-.08-.31-.05-.54-.17-.68-.36s-.21-.47-.21-.85c0-.48.14-.79.43-.96s.73-.24,1.33-.24c.33,0,.56-.02.7-.08.14-.05.22-.2.24-.45.02-.35.04-.7.06-1.03.01-.34.03-.67.06-1,.05-.5.18-.89.38-1.17.2-.28.45-.41.75-.41.5,0,.82.27.96.81.14.54.21,1.51.21,2.91,0,.17.03.29.09.34.06.05.18.08.36.08h4.58c.58,0,1.03.09,1.35.26.33.18.49.49.49.94,0,.48-.18.81-.53,1-.35.19-.79.28-1.32.28h-4.7c-.13,0-.23.03-.3.09s-.11.19-.11.39c-.03,1.83-.03,3.52-.02,5.07.01,1.55.02,2.71.02,3.46,0,2,.33,3.38.98,4.11.65.74,1.5,1.11,2.56,1.11.63,0,1.1-.06,1.43-.17.33-.11.69-.17,1.09-.17.33,0,.58.09.75.26s.26.44.26.79-.13.66-.39.92c-.26.26-.66.46-1.2.6-.54.14-1.21.21-2.01.21Z"/>
    <path class="st2" d="M126.84,43.56c-.65,0-1.15-.2-1.5-.6-.35-.4-.53-.91-.53-1.54s.17-1.14.53-1.54c.35-.4.85-.6,1.5-.6.7,0,1.23.2,1.58.6.35.4.53.92.53,1.54s-.18,1.14-.53,1.54c-.35.4-.88.6-1.58.6ZM126.88,65.62c-.2,0-.38-.05-.53-.15s-.28-.24-.38-.41c-.13-.23-.21-.77-.26-1.63-.05-.86-.08-1.93-.08-3.19v-8.08c0-1.37.02-2.54.08-3.53.05-.99.12-1.58.22-1.79.13-.23.26-.38.41-.47s.33-.13.53-.13c.45,0,.76.19.94.56.13.2.21.79.25,1.77.04.98.06,2.15.06,3.53v8.14c0,1.27-.03,2.34-.08,3.21s-.14,1.42-.26,1.62c-.23.38-.53.56-.9.56Z"/>
    <path class="st2" d="M140.29,65.77c-1.63,0-3.08-.43-4.36-1.3-1.28-.86-2.27-2.03-2.99-3.49-.71-1.47-1.07-3.09-1.07-4.87,0-1.93.35-3.63,1.05-5.11.7-1.48,1.68-2.64,2.95-3.5,1.26-.85,2.74-1.28,4.42-1.28,1.28,0,2.31.14,3.1.41.79.28,1.18.68,1.18,1.2,0,.35-.1.63-.3.83-.23.23-.51.33-.86.32-.35-.01-.78-.06-1.3-.15-.51-.09-1.16-.13-1.93-.13-.95,0-1.87.24-2.76.73s-1.61,1.27-2.16,2.35c-.55,1.08-.84,2.48-.86,4.21.02,1.7.31,3.09.86,4.17.55,1.08,1.27,1.87,2.16,2.37.89.5,1.81.75,2.76.75.83,0,1.5-.04,2.01-.13.51-.09.93-.14,1.26-.17.33-.02.6.09.83.34.12.1.21.21.24.34.04.13.06.29.06.49,0,.35-.18.65-.54.88-.36.24-.86.42-1.5.54-.64.12-1.38.19-2.24.19Z"/>
  </g>
</svg>